[img]http://img855.imageshack.us/img855/7149/2012x.jpg[/img]
 
http://www.imdb.com/title/tt1190080/

Source: 2012.2009.720p.BluRay.x264-METiS

Subs: Arabic, Brazilian-Portuguese, Danish, Dutch, English, Farsi-Persian, Finnish, French, Greek, Indonesian, Norwegian, Swedish and Vietnamese.

Sample and Screens included.

General
Complete name                    : 2012-720p MP4 AAC BRRip 2009-CC.mp4
Format                           : MPEG-4
Format profile                   : Base Media
Codec ID                         : isom
File size                        : 2.21 GiB
Duration                         : 2h 37mn
Overall bit rate                 : 2 001 Kbps
Encoded date                     : UTC 2012-01-17 20:15:06
Tagged date                      : UTC 2012-01-17 20:15:06
Writing application              : Yamb 2.1.0.0 [http://yamb.unite-video.com]

Video
ID                               : 1
Format                           : AVC
Format/Info                      : Advanced Video Codec
Format profile                   : High@L3.1
Format settings, CABAC           : Yes
Format settings, ReFrames        : 5 frames
Codec ID                         : avc1
Codec ID/Info                    : Advanced Video Coding
Duration                         : 2h 37mn
Bit rate mode                    : Variable
Bit rate                         : 1 568 Kbps
Maximum bit rate                 : 10.5 Mbps
Width                            : 1 280 pixels
Height                           : 528 pixels
Display aspect ratio             : 2.35:1
Original display aspect ratio    : 2.35:1
Frame rate mode                  : Variable
Frame rate                       : 23.976 fps
Minimum frame rate               : 15.873 fps
Maximum frame rate               : 24.390 fps
Color space                      : YUV
Chroma subsampling               : 4:2:0
Bit depth                        : 8 bits
Scan type                        : Progressive
Bits/(Pixel*Frame)               : 0.097
Stream size                      : 1.71 GiB (77%)
Writing library                  : x264 core 112
Encoding settings                : cabac=1 / ref=5 / deblock=1:0:0 / analyse=0x3:0x113 / me=hex / subme=7 / psy=1 / psy_rd=1.00:0.00 / mixed_ref=1 / me_range=16 / chroma_me=1 / trellis=1 / 8x8dct=1 / cqm=0 / deadzone=21,11 / fast_pskip=1 / chroma_qp_offset=-2 / threads=3 / sliced_threads=0 / nr=0 / decimate=1 / interlaced=0 / constrained_intra=0 / bframes=5 / b_pyramid=2 / b_adapt=2 / b_bias=0 / direct=1 / weightb=1 / open_gop=0 / weightp=2 / keyint=240 / keyint_min=23 / scenecut=40 / intra_refresh=0 / rc_lookahead=50 / rc=abr / mbtree=1 / bitrate=1568 / ratetol=1.0 / qcomp=0.60 / qpmin=3 / qpmax=51 / qpstep=4 / ip_ratio=1.40 / aq=1:1.00
Encoded date                     : UTC 2012-01-17 23:17:22
Tagged date                      : UTC 2012-01-17 20:24:56
Color primaries                  : BT.709-5, BT.1361, IEC 61966-2-4, SMPTE RP177
Transfer characteristics         : BT.709-5, BT.1361
Matrix coefficients              : BT.709-5, BT.1361, IEC 61966-2-4 709, SMPTE RP177

Audio
ID                               : 2
Format                           : AAC
Format/Info                      : Advanced Audio Codec
Format version                   : Version 4
Format profile                   : LC
Format settings, SBR             : No
Codec ID                         : 40
Duration                         : 2h 37mn
Bit rate mode                    : Variable
Bit rate                         : 448 Kbps
Maximum bit rate                 : 838 Kbps
Channel(s)                       : 6 channels
Channel positions                : Front: L C R, Side: L R, LFE
Sampling rate                    : 48.0 KHz
Stream size                      : 505 MiB (22%)
Encoded date                     : UTC 2012-01-17 20:20:45
Tagged date                      : UTC 2012-01-17 20:24:56

Enjoy...

[img]http://img696.imageshack.us/img696/483/2012720pmp4aacbrrip2009.png[/img]

[img]http://img842.imageshack.us/img842/483/2012720pmp4aacbrrip2009.png[/img]

[img]http://img256.imageshack.us/img256/483/2012720pmp4aacbrrip2009.png[/img]

[img]http://img338.imageshack.us/img338/483/2012720pmp4aacbrrip2009.png[/img]

[img]http://img717.imageshack.us/img717/483/2012720pmp4aacbrrip2009.png[/img]